<svg width="91" height="39" viewBox="0 0 91 39" fill="none" xmlns="http://www.w3.org/2000/svg">
<path d="M1.72319 17.9337H9.52587C13.0349 17.9337 14.7567 16.5389 14.7567 14.1632C14.7567 12.3106 13.7105 11.0029 11.3567 10.6977V10.676C13.3182 10.3708 14.3862 9.19388 14.3862 7.34129C14.3862 4.96561 12.708 3.54893 9.13356 3.54893H1.72319V17.9337ZM5.7553 15.0786V12.2452H8.65406C9.87459 12.2452 10.4631 12.7465 10.4631 13.6619C10.4631 14.5773 9.87459 15.0786 8.65406 15.0786H5.7553ZM5.7553 9.32465V6.53487H8.28354C9.50407 6.53487 10.0925 6.99256 10.0925 7.92976C10.0925 8.86695 9.50407 9.32465 8.28354 9.32465H5.7553ZM32.1617 3.54893H25.5796V17.9337H32.1617C36.6733 17.9337 39.1144 15.3401 39.1144 10.7413C39.1144 6.14255 36.6733 3.54893 32.1617 3.54893ZM29.7642 14.8388V6.64384H31.6822C33.9489 6.64384 34.9951 8.32207 34.9951 10.7413C34.9951 13.1606 33.9489 14.8388 31.6822 14.8388H29.7642ZM55.285 18.2171C58.3581 18.2171 61.1261 17.1273 61.1261 13.9234C61.1261 11.2862 59.2517 10.1093 56.2876 9.41183C54.9145 9.06311 53.5414 8.67079 53.5414 7.60283C53.5414 6.77461 54.1299 6.25153 55.2196 6.25153C56.5491 6.25153 57.1158 7.10154 57.094 8.43105H60.6466C60.6466 5.20536 58.7069 3.30918 55.2196 3.30918C51.9068 3.30918 49.5093 5.0092 49.5093 7.88617C49.5093 10.8503 52.0811 11.6785 54.4786 12.3106C55.6555 12.6157 57.094 12.9862 57.094 14.0542C57.094 14.8388 56.3312 15.4055 55.0889 15.4055C53.5632 15.4055 52.7568 14.5555 52.7568 13.8363C52.7568 13.5965 52.7568 13.2914 52.8004 13.0298H49.5093C49.4221 13.4875 49.4003 13.9234 49.4003 14.185C49.4003 16.5389 51.4491 18.2171 55.285 18.2171ZM89.3814 3.54893H83.6928L81.6441 10.567L80.8813 13.4875H80.8377L80.0966 10.567L78.0261 3.54893H72.1196V17.9337H75.803V11.8529L75.7158 7.95155H75.7812L79.0505 17.9337H82.4287L85.7416 7.95155H85.7852L85.6762 11.8529V17.9337H89.3814V3.54893Z" fill="#C8000F"/>
<path d="M14.299 22.1152H0.851387V25.7332H5.49376V36.5H9.67844V25.7332H14.299V22.1152ZM18.5658 29.3294C18.5658 33.4705 21.8786 36.7834 25.9979 36.7834C30.1172 36.7834 33.4519 33.4705 33.4519 29.3294C33.4519 25.2101 30.1172 21.8973 25.9979 21.8973C21.8786 21.8973 18.5658 25.2101 18.5658 29.3294ZM22.4017 29.3294C22.4017 27.3461 24.0146 25.7332 25.9979 25.7332C28.0249 25.7332 29.6159 27.3461 29.6159 29.3294C29.6159 31.3128 28.0249 32.9474 25.9979 32.9474C24.0146 32.9474 22.4017 31.3128 22.4017 29.3294ZM52.656 22.1152H48.079L43.393 28.1743V22.1152H39.2084V36.5H43.393V32.5551L44.9623 30.5717L48.2316 36.5H52.9611L47.9482 27.9127L52.656 22.1152ZM58.3021 36.5H70.0279V33.3397H62.4868V30.8551H68.8074V27.8691H62.4868V25.2755H69.7446V22.1152H58.3021V36.5ZM89.3936 22.1152H85.7102V28.5884L85.7974 31.182H85.7756L84.7731 29.3294L80.6538 22.1152H76.055V36.5H79.7166V30.0269L79.6294 27.3678H79.673L80.6538 29.2858L84.7731 36.5H89.3936V22.1152Z" fill="#C8000F"/>
</svg>
