<svg width="724" height="756" viewBox="0 0 724 756" fill="none" xmlns="http://www.w3.org/2000/svg">
<circle cx="362" cy="362.238" r="343" stroke="#C8000F" stroke-width="38"/>
<path d="M127.188 161.666C206.43 192.198 244.212 213.821 284.688 270.666L186.188 367.666C115.033 306.737 97.4016 263.55 127.188 161.666Z" fill="#C8000F"/>
<path d="M84.1884 348.666C84.1885 396.666 79.189 442.166 120.692 442.166L120.692 408.166C120.692 408.166 89.6885 414.166 89.6885 384.666C89.6885 326.166 249.189 317.666 249.189 317.666L249.189 276.166C162.688 276.166 84.1884 307.166 84.1884 348.666Z" fill="#C8000F"/>
<path fill-rule="evenodd" clip-rule="evenodd" d="M249.975 603.312C291.35 605.919 309.347 593.595 324.911 582.936C335.918 575.398 345.708 568.694 361.689 568.694C377.671 568.694 387.461 575.398 398.468 582.936C414.032 593.595 432.029 605.919 473.404 603.312C544.039 598.861 611.168 509.348 609.665 427.252C608.162 345.157 565.079 303.615 513.48 282.349C461.881 261.084 442.871 257.939 361.689 253.666C280.508 257.939 261.497 261.084 209.899 282.349C158.3 303.615 115.217 345.157 113.714 427.252C112.211 509.348 179.34 598.861 249.975 603.312ZM154.188 438.665C172.688 509.166 228.188 565.665 339.688 539.165C339.688 539.165 345.188 503.165 297.688 466.665C250.188 430.165 154.188 438.665 154.188 438.665ZM383.688 539.165C495.188 565.665 550.688 509.166 569.188 438.665C569.188 438.665 473.188 430.165 425.688 466.665C378.188 503.165 383.688 539.165 383.688 539.165Z" fill="#C8000F"/>
<path d="M596.19 161.666C516.947 192.198 479.166 213.821 438.69 270.666L537.19 367.666C608.344 306.737 625.976 263.55 596.19 161.666Z" fill="#C8000F"/>
<path d="M639.191 348.666C639.19 396.666 644.19 442.166 602.687 442.166L602.687 408.166C602.687 408.166 633.69 414.166 633.69 384.666C633.69 326.166 474.19 317.666 474.19 317.666L474.19 276.166C560.69 276.166 639.191 307.166 639.191 348.666Z" fill="#C8000F"/>
<circle cx="361.688" cy="700.238" r="55" fill="#C8000F"/>
</svg>
